# Blender v2.73 (sub 0) OBJ File: ''
# www.blender.org
o Sphere
v -0.707107 -0.707107 0.000000
v -0.382683 -0.923880 0.000000
v -0.157831 0.980785 -0.114671
v -0.309597 0.923880 -0.224936
v -0.449466 0.831470 -0.326556
v -0.572061 0.707107 -0.415627
v -0.672673 0.555570 -0.488726
v -0.747434 0.382683 -0.543043
v -0.793472 0.195090 -0.576491
v -0.809017 0.000000 -0.587785
v -0.793472 -0.195090 -0.576491
v -0.747434 -0.382683 -0.543043
v -0.672673 -0.555570 -0.488726
v -0.572061 -0.707107 -0.415627
v -0.449466 -0.831470 -0.326556
v -0.309597 -0.923880 -0.224936
v -0.157831 -0.980785 -0.114671
v -0.060286 0.980785 -0.185542
v -0.118255 0.923880 -0.363954
v -0.171680 0.831470 -0.528379
v -0.218508 0.707107 -0.672499
v -0.256938 0.555570 -0.790775
v -0.285494 0.382683 -0.878662
v -0.303079 0.195090 -0.932782
v -0.309017 0.000000 -0.951057
v -0.303079 -0.195090 -0.932783
v -0.285494 -0.382683 -0.878662
v -0.256938 -0.555570 -0.790775
v -0.218508 -0.707107 -0.672499
v -0.171680 -0.831470 -0.528379
v -0.118255 -0.923880 -0.363954
v -0.060286 -0.980785 -0.185542
v 0.060287 0.980785 -0.185542
v 0.118256 0.923880 -0.363954
v 0.171681 0.831470 -0.528379
v 0.218508 0.707107 -0.672499
v 0.256939 0.555570 -0.790775
v 0.285495 0.382683 -0.878662
v 0.303080 0.195090 -0.932782
v 0.309017 0.000000 -0.951057
v 0.303080 -0.195090 -0.932783
v 0.285495 -0.382683 -0.878662
v 0.256939 -0.555570 -0.790775
v 0.218508 -0.707107 -0.672499
v 0.171681 -0.831470 -0.528379
v 0.118256 -0.923880 -0.363954
v 0.060287 -0.980785 -0.185542
v 0.157832 0.980785 -0.114671
v 0.309598 0.923880 -0.224936
v 0.449466 0.831470 -0.326556
v 0.572062 0.707107 -0.415627
v 0.672674 0.555570 -0.488726
v 0.747435 0.382683 -0.543043
v 0.793472 0.195090 -0.576491
v 0.809017 0.000000 -0.587785
v 0.793473 -0.195090 -0.576491
v 0.747435 -0.382683 -0.543043
v 0.672674 -0.555570 -0.488726
v 0.572062 -0.707107 -0.415627
v 0.449466 -0.831470 -0.326556
v 0.309598 -0.923880 -0.224936
v 0.157832 -0.980785 -0.114671
v 0.195091 0.980785 -0.000000
v 0.382684 0.923880 -0.000000
v 0.555571 0.831470 -0.000000
v 0.707107 0.707107 -0.000000
v 0.831470 0.555570 -0.000000
v 0.923880 0.382683 -0.000000
v 0.980786 0.195090 -0.000000
v 1.000001 0.000000 -0.000000
v 0.980786 -0.195090 -0.000000
v 0.923880 -0.382683 -0.000000
v 0.831470 -0.555570 -0.000000
v 0.707107 -0.707107 -0.000000
v 0.555571 -0.831470 -0.000000
v 0.382684 -0.923880 -0.000000
v 0.195091 -0.980785 -0.000000
v 0.157832 0.980785 0.114671
v 0.309598 0.923880 0.224936
v 0.449466 0.831470 0.326556
v 0.572062 0.707107 0.415627
v 0.672674 0.555570 0.488726
v 0.747435 0.382683 0.543043
v 0.793472 0.195090 0.576491
v 0.809018 0.000000 0.587785
v 0.793473 -0.195090 0.576491
v 0.747435 -0.382683 0.543043
v 0.672674 -0.555570 0.488726
v 0.572062 -0.707107 0.415627
v 0.449466 -0.831470 0.326556
v 0.309598 -0.923880 0.224936
v 0.157832 -0.980785 0.114671
v 0.060287 0.980785 0.185542
v 0.118256 0.923880 0.363954
v 0.171681 0.831470 0.528379
v 0.218508 0.707107 0.672499
v 0.256939 0.555570 0.790775
v 0.285495 0.382683 0.878662
v 0.303080 0.195090 0.932782
v 0.309018 0.000000 0.951057
v 0.303080 -0.195090 0.932783
v 0.285495 -0.382683 0.878662
v 0.256939 -0.555570 0.790775
v 0.218508 -0.707107 0.672499
v 0.171681 -0.831470 0.528379
v 0.118256 -0.923880 0.363954
v 0.060287 -0.980785 0.185542
v -0.060286 0.980785 0.185542
v -0.118255 0.923880 0.363954
v -0.171680 0.831470 0.528379
v -0.218508 0.707107 0.672499
v -0.256938 0.555570 0.790775
v -0.285494 0.382683 0.878662
v -0.303079 0.195090 0.932782
v -0.309017 0.000000 0.951057
v -0.303079 -0.195090 0.932783
v -0.285494 -0.382683 0.878662
v -0.256938 -0.555570 0.790775
v -0.218508 -0.707107 0.672499
v -0.171680 -0.831470 0.528379
v -0.118255 -0.923880 0.363954
v -0.060286 -0.980785 0.185542
v 0.000000 -1.000000 0.000000
v 0.000000 1.000000 0.000000
v -0.157831 0.980785 0.114671
v -0.309597 0.923880 0.224936
v -0.449466 0.831470 0.326556
v -0.572061 0.707107 0.415627
v -0.672673 0.555570 0.488726
v -0.747434 0.382683 0.543043
v -0.793472 0.195090 0.576491
v -0.809017 0.000000 0.587786
v -0.793472 -0.195090 0.576491
v -0.747434 -0.382683 0.543043
v -0.672673 -0.555570 0.488726
v -0.572061 -0.707107 0.415627
v -0.449466 -0.831470 0.326556
v -0.309597 -0.923880 0.224936
v -0.157831 -0.980785 0.114671
v -0.195090 0.980785 0.000000
v -0.382683 0.923880 0.000000
v -0.555570 0.831470 -0.000000
v -0.707107 0.707107 -0.000000
v -0.831470 0.555570 0.000000
v -0.923879 0.382683 0.000000
v -0.980785 0.195090 0.000000
v -1.000000 0.000000 0.000000
v -0.980785 -0.195090 0.000000
v -0.923880 -0.382683 0.000000
v -0.831470 -0.555570 0.000000
v -0.555570 -0.831470 0.000000
v -0.195090 -0.980785 0.000000
vt 1.000000 0.000000
vt 1.000000 1.000000
vt 0.000000 1.000000
vt 0.000000 0.000000
vn -0.172900 0.976900 -0.125600
vn -0.066000 0.976900 -0.203300
vn -0.123300 0.916900 -0.379600
vn -0.579700 -0.697500 -0.421200
vn -0.221400 -0.697500 -0.681500
vn -0.175800 -0.822500 -0.540900
vn -0.749600 -0.376000 -0.544600
vn -0.286300 -0.376000 -0.881300
vn -0.258700 -0.546800 -0.796300
vn -0.809000 0.000000 -0.587800
vn -0.309000 0.000000 -0.951000
vn -0.303300 -0.191500 -0.933400
vn -0.749600 0.376000 -0.544600
vn -0.286300 0.376000 -0.881300
vn -0.303300 0.191500 -0.933400
vn -0.579700 0.697500 -0.421200
vn -0.221400 0.697500 -0.681500
vn -0.258700 0.546800 -0.796300
vn -0.460100 0.822500 -0.334300
vn -0.322900 0.916900 -0.234600
vn -0.460100 -0.822500 -0.334300
vn -0.123300 -0.916900 -0.379600
vn -0.677400 -0.546800 -0.492100
vn -0.794000 -0.191500 -0.576900
vn -0.794000 0.191500 -0.576900
vn -0.677400 0.546800 -0.492100
vn -0.175800 0.822500 -0.540900
vn -0.322900 -0.916900 -0.234600
vn -0.066000 -0.976900 -0.203300
vn 0.066000 0.976900 -0.203300
vn 0.221400 -0.697500 -0.681500
vn 0.175800 -0.822500 -0.540900
vn 0.286300 -0.376000 -0.881300
vn 0.258700 -0.546800 -0.796300
vn 0.309000 0.000000 -0.951000
vn 0.303300 -0.191500 -0.933400
vn 0.286300 0.376000 -0.881300
vn 0.303300 0.191500 -0.933400
vn 0.221400 0.697500 -0.681500
vn 0.258700 0.546800 -0.796300
vn 0.123300 0.916900 -0.379600
vn 0.175800 0.822500 -0.540900
vn 0.123300 -0.916900 -0.379600
vn 0.172900 0.976900 -0.125600
vn 0.322900 0.916900 -0.234600
vn 0.579700 -0.697500 -0.421200
vn 0.460100 -0.822500 -0.334300
vn 0.749600 -0.376000 -0.544600
vn 0.677400 -0.546800 -0.492100
vn 0.809000 0.000000 -0.587800
vn 0.794000 -0.191500 -0.576900
vn 0.749600 0.376000 -0.544600
vn 0.794000 0.191500 -0.576900
vn 0.579700 0.697500 -0.421200
vn 0.677400 0.546800 -0.492100
vn 0.460100 0.822500 -0.334300
vn 0.322900 -0.916900 -0.234600
vn 0.066000 -0.976900 -0.203300
vn 0.213800 0.976900 0.000000
vn 0.399100 0.916900 0.000000
vn 0.716500 -0.697500 0.000000
vn 0.568700 -0.822500 0.000000
vn 0.926600 -0.376000 0.000000
vn 0.837200 -0.546800 0.000000
vn 1.000000 0.000000 0.000000
vn 0.981500 -0.191500 0.000000
vn 0.926600 0.376000 0.000000
vn 0.981500 0.191500 0.000000
vn 0.716500 0.697500 0.000000
vn 0.568700 0.822500 0.000000
vn 0.837200 0.546800 0.000000
vn 0.399100 -0.916900 0.000000
vn 0.213800 -0.976900 0.000000
vn 0.172900 0.976900 0.125600
vn 0.322900 0.916900 0.234600
vn 0.579700 -0.697500 0.421200
vn 0.460100 -0.822500 0.334300
vn 0.749600 -0.376000 0.544600
vn 0.677400 -0.546800 0.492100
vn 0.809000 0.000000 0.587800
vn 0.794000 -0.191500 0.576900
vn 0.749600 0.376000 0.544600
vn 0.794000 0.191500 0.576900
vn 0.579700 0.697500 0.421200
vn 0.460100 0.822500 0.334300
vn 0.322900 -0.916900 0.234600
vn 0.677400 0.546800 0.492100
vn 0.172900 -0.976900 0.125600
vn 0.066000 0.976900 0.203300
vn 0.123300 0.916900 0.379600
vn 0.221400 -0.697500 0.681500
vn 0.175800 -0.822500 0.540900
vn 0.286300 -0.376000 0.881300
vn 0.258700 -0.546800 0.796300
vn 0.309000 0.000000 0.951000
vn 0.303300 -0.191500 0.933400
vn 0.286300 0.376000 0.881300
vn 0.303300 0.191500 0.933400
vn 0.221400 0.697500 0.681500
vn 0.258700 0.546800 0.796300
vn 0.175800 0.822500 0.540900
vn 0.123300 -0.916900 0.379600
vn -0.066000 0.976900 0.203300
vn -0.221400 -0.697500 0.681500
vn -0.175800 -0.822500 0.540900
vn -0.286300 -0.376000 0.881300
vn -0.258700 -0.546800 0.796300
vn -0.309000 0.000000 0.951000
vn -0.286300 0.376000 0.881300
vn -0.303300 0.191500 0.933400
vn -0.221400 0.697500 0.681500
vn -0.258700 0.546800 0.796300
vn -0.123300 0.916900 0.379600
vn -0.175800 0.822500 0.540900
vn -0.303300 -0.191500 0.933400
vn 0.066000 -0.976900 0.203300
vn -0.123300 -0.916900 0.379600
vn -0.172900 0.976900 0.125600
vn -0.579700 -0.697500 0.421200
vn -0.460100 -0.822500 0.334300
vn -0.749600 -0.376000 0.544600
vn -0.677400 -0.546800 0.492100
vn -0.809000 0.000000 0.587800
vn -0.749600 0.376000 0.544600
vn -0.794000 0.191500 0.576900
vn -0.579700 0.697500 0.421200
vn -0.677400 0.546800 0.492100
vn -0.322900 0.916900 0.234600
vn -0.460100 0.822500 0.334300
vn -0.322900 -0.916900 0.234600
vn -0.794000 -0.191500 0.576900
vn -0.172900 -0.976900 0.125600
vn -0.213800 0.976900 0.000000
vn -0.926600 -0.376000 0.000000
vn -1.000000 0.000000 0.000000
vn -0.926600 0.376000 0.000000
vn -0.981500 0.191500 0.000000
vn -0.716500 0.697500 0.000000
vn -0.837200 0.546800 0.000000
vn -0.399100 0.916900 0.000000
vn -0.568700 0.822500 0.000000
vn -0.981500 -0.191500 0.000000
vn 0.000000 -1.000000 0.000000
vn -0.213800 -0.976900 0.000000
vn -0.172900 -0.976900 -0.125600
vn -0.568700 -0.822500 0.000000
vn 0.000000 1.000000 0.000000
vn -0.837200 -0.546800 0.000000
vn -0.399100 -0.916900 0.000000
vn -0.716500 -0.697500 0.000000
vn 0.172900 -0.976900 -0.125600
vn -0.066000 -0.976900 0.203300
s 1
f 3/1/1 18/2/2 19/3/3
f 14/1/4 29/2/5 30/3/6
f 12/1/7 27/2/8 28/3/9
f 10/1/10 25/2/11 26/3/12
f 8/1/13 23/2/14 24/3/15
f 6/1/16 21/2/17 22/3/18
f 5/4/19 4/1/20 19/2/3
f 15/1/21 30/2/6 31/3/22
f 13/1/23 28/2/9 29/3/5
f 11/1/24 26/2/12 27/3/8
f 9/1/25 24/2/15 25/3/11
f 7/1/26 22/2/18 23/3/14
f 5/1/19 20/2/27 21/3/17
f 16/1/28 31/2/22 32/3/29
f 19/4/3 18/1/2 33/2/30
f 29/1/5 44/2/31 45/3/32
f 27/1/8 42/2/33 43/3/34
f 25/1/11 40/2/35 41/3/36
f 23/1/14 38/2/37 39/3/38
f 21/1/17 36/2/39 37/3/40
f 19/1/3 34/2/41 35/3/42
f 31/4/22 30/1/6 45/2/32
f 28/1/9 43/2/34 44/3/31
f 27/4/8 26/1/12 41/2/36
f 24/1/15 39/2/38 40/3/35
f 23/4/14 22/1/18 37/2/40
f 20/1/27 35/2/42 36/3/39
f 32/4/29 31/1/22 46/2/43
f 33/1/30 48/2/44 49/3/45
f 44/1/31 59/2/46 60/3/47
f 42/1/33 57/2/48 58/3/49
f 40/1/35 55/2/50 56/3/51
f 38/1/37 53/2/52 54/3/53
f 36/1/39 51/2/54 52/3/55
f 34/1/41 49/2/45 50/3/56
f 45/1/32 60/2/47 61/3/57
f 43/1/34 58/2/49 59/3/46
f 41/1/36 56/2/51 57/3/48
f 40/4/35 39/1/38 54/2/53
f 37/1/40 52/2/55 53/3/52
f 35/1/42 50/2/56 51/3/54
f 47/4/58 46/1/43 61/2/57
f 48/1/44 63/2/59 64/3/60
f 59/1/46 74/2/61 75/3/62
f 57/1/48 72/2/63 73/3/64
f 55/1/50 70/2/65 71/3/66
f 53/1/52 68/2/67 69/3/68
f 52/4/55 51/1/54 66/2/69
f 49/1/45 64/2/60 65/3/70
f 61/4/57 60/1/47 75/2/62
f 58/1/49 73/2/64 74/3/61
f 57/4/48 56/1/51 71/2/66
f 54/1/53 69/2/68 70/3/65
f 52/1/55 67/2/71 68/3/67
f 51/4/54 50/1/56 65/2/70
f 61/1/57 76/2/72 77/3/73
f 63/1/59 78/2/74 79/3/75
f 74/1/61 89/2/76 90/3/77
f 72/1/63 87/2/78 88/3/79
f 70/1/65 85/2/80 86/3/81
f 68/1/67 83/2/82 84/3/83
f 67/4/71 66/1/69 81/2/84
f 64/1/60 79/2/75 80/3/85
f 75/1/62 90/2/77 91/3/86
f 73/1/64 88/2/79 89/3/76
f 72/4/63 71/1/66 86/2/81
f 69/1/68 84/2/83 85/3/80
f 67/1/71 82/2/87 83/3/82
f 66/4/69 65/1/70 80/2/85
f 76/1/72 91/2/86 92/3/88
f 78/1/74 93/2/89 94/3/90
f 89/1/76 104/2/91 105/3/92
f 87/1/78 102/2/93 103/3/94
f 85/1/80 100/2/95 101/3/96
f 83/1/82 98/2/97 99/3/98
f 81/1/84 96/2/99 97/3/100
f 79/1/75 94/2/90 95/3/101
f 91/4/86 90/1/77 105/2/92
f 88/1/79 103/2/94 104/3/91
f 87/4/78 86/1/81 101/2/96
f 84/1/83 99/2/98 100/3/95
f 82/1/87 97/2/100 98/3/97
f 80/1/85 95/2/101 96/3/99
f 92/4/88 91/1/86 106/2/102
f 94/4/90 93/1/89 108/2/103
f 104/1/91 119/2/104 120/3/105
f 102/1/93 117/2/106 118/3/107
f 101/4/96 100/1/95 115/2/108
f 98/1/97 113/2/109 114/3/110
f 96/1/99 111/2/111 112/3/112
f 94/1/90 109/2/113 110/3/114
f 106/4/102 105/1/92 120/2/105
f 103/1/94 118/2/107 119/3/104
f 101/1/96 116/2/115 117/3/106
f 99/1/98 114/2/110 115/3/108
f 97/1/100 112/2/112 113/3/109
f 96/4/99 95/1/101 110/2/114
f 107/4/116 106/1/102 121/2/117
f 109/4/113 108/1/103 125/2/118
f 119/1/104 136/2/119 137/3/120
f 117/1/106 134/2/121 135/3/122
f 116/4/115 115/1/108 132/2/123
f 113/1/109 130/2/124 131/3/125
f 111/1/111 128/2/126 129/3/127
f 109/1/113 126/2/128 127/3/129
f 120/1/105 137/2/120 138/3/130
f 118/1/107 135/2/122 136/3/119
f 116/1/115 133/2/131 134/3/121
f 114/1/110 131/2/125 132/3/123
f 112/1/112 129/2/127 130/3/124
f 110/1/114 127/2/129 128/3/126
f 121/1/117 138/2/130 139/3/132
f 126/4/128 125/1/118 140/2/133
f 135/4/122 134/1/121 149/2/134
f 133/4/131 132/1/123 147/2/135
f 130/1/124 145/2/136 146/3/137
f 128/1/126 143/2/138 144/3/139
f 126/1/128 141/2/140 142/3/141
f 133/1/131 148/2/142 149/3/134
f 131/1/125 146/2/137 147/3/135
f 129/1/127 144/2/139 145/3/136
f 127/1/129 142/2/141 143/3/138
f 145/1/136 8/2/13 9/3/25
f 143/1/138 6/2/16 7/3/26
f 123/4/143 152/1/144 17/2/145
f 141/1/140 4/2/20 5/3/19
f 151/1/146 15/2/21 16/3/28
f 140/4/133 124/1/147 3/2/1
f 150/1/148 13/2/23 14/3/4
f 148/1/142 11/2/24 12/3/7
f 146/1/137 9/2/25 10/3/10
f 145/4/136 144/1/139 7/2/26
f 143/4/138 142/1/141 5/2/19
f 2/1/149 16/2/28 17/3/145
f 140/1/133 3/2/1 4/3/20
f 1/1/150 14/2/4 15/3/21
f 149/1/134 12/2/7 13/3/23
f 147/1/135 10/2/10 11/3/24
f 123/4/143 17/1/145 32/2/29
f 3/4/1 124/1/147 18/2/2
f 123/4/143 32/1/29 47/2/58
f 18/4/2 124/1/147 33/2/30
f 123/4/143 47/1/58 62/2/151
f 33/4/30 124/1/147 48/2/44
f 123/4/143 62/1/151 77/2/73
f 48/4/44 124/1/147 63/2/59
f 123/4/143 77/1/73 92/2/88
f 63/4/59 124/1/147 78/2/74
f 123/4/143 92/1/88 107/2/116
f 78/4/74 124/1/147 93/2/89
f 123/4/143 107/1/116 122/2/152
f 93/4/89 124/1/147 108/2/103
f 123/4/143 122/1/152 139/2/132
f 108/4/103 124/1/147 125/2/118
f 136/1/119 1/2/150 151/3/146
f 123/4/143 139/1/132 152/2/144
f 137/1/120 151/2/146 2/3/149
f 125/4/118 124/1/147 140/2/133
f 136/4/119 135/1/122 150/2/148
f 138/1/130 2/2/149 152/3/144
f 4/4/20 3/1/1 19/3/3
f 15/4/21 14/1/4 30/3/6
f 13/4/23 12/1/7 28/3/9
f 11/4/24 10/1/10 26/3/12
f 9/4/25 8/1/13 24/3/15
f 7/4/26 6/1/16 22/3/18
f 20/3/27 5/4/19 19/2/3
f 16/4/28 15/1/21 31/3/22
f 14/4/4 13/1/23 29/3/5
f 12/4/7 11/1/24 27/3/8
f 10/4/10 9/1/25 25/3/11
f 8/4/13 7/1/26 23/3/14
f 6/4/16 5/1/19 21/3/17
f 17/4/145 16/1/28 32/3/29
f 34/3/41 19/4/3 33/2/30
f 30/4/6 29/1/5 45/3/32
f 28/4/9 27/1/8 43/3/34
f 26/4/12 25/1/11 41/3/36
f 24/4/15 23/1/14 39/3/38
f 22/4/18 21/1/17 37/3/40
f 20/4/27 19/1/3 35/3/42
f 46/3/43 31/4/22 45/2/32
f 29/4/5 28/1/9 44/3/31
f 42/3/33 27/4/8 41/2/36
f 25/4/11 24/1/15 40/3/35
f 38/3/37 23/4/14 37/2/40
f 21/4/17 20/1/27 36/3/39
f 47/3/58 32/4/29 46/2/43
f 34/4/41 33/1/30 49/3/45
f 45/4/32 44/1/31 60/3/47
f 43/4/34 42/1/33 58/3/49
f 41/4/36 40/1/35 56/3/51
f 39/4/38 38/1/37 54/3/53
f 37/4/40 36/1/39 52/3/55
f 35/4/42 34/1/41 50/3/56
f 46/4/43 45/1/32 61/3/57
f 44/4/31 43/1/34 59/3/46
f 42/4/33 41/1/36 57/3/48
f 55/3/50 40/4/35 54/2/53
f 38/4/37 37/1/40 53/3/52
f 36/4/39 35/1/42 51/3/54
f 62/3/151 47/4/58 61/2/57
f 49/4/45 48/1/44 64/3/60
f 60/4/47 59/1/46 75/3/62
f 58/4/49 57/1/48 73/3/64
f 56/4/51 55/1/50 71/3/66
f 54/4/53 53/1/52 69/3/68
f 67/3/71 52/4/55 66/2/69
f 50/4/56 49/1/45 65/3/70
f 76/3/72 61/4/57 75/2/62
f 59/4/46 58/1/49 74/3/61
f 72/3/63 57/4/48 71/2/66
f 55/4/50 54/1/53 70/3/65
f 53/4/52 52/1/55 68/3/67
f 66/3/69 51/4/54 65/2/70
f 62/4/151 61/1/57 77/3/73
f 64/4/60 63/1/59 79/3/75
f 75/4/62 74/1/61 90/3/77
f 73/4/64 72/1/63 88/3/79
f 71/4/66 70/1/65 86/3/81
f 69/4/68 68/1/67 84/3/83
f 82/3/87 67/4/71 81/2/84
f 65/4/70 64/1/60 80/3/85
f 76/4/72 75/1/62 91/3/86
f 74/4/61 73/1/64 89/3/76
f 87/3/78 72/4/63 86/2/81
f 70/4/65 69/1/68 85/3/80
f 68/4/67 67/1/71 83/3/82
f 81/3/84 66/4/69 80/2/85
f 77/4/73 76/1/72 92/3/88
f 79/4/75 78/1/74 94/3/90
f 90/4/77 89/1/76 105/3/92
f 88/4/79 87/1/78 103/3/94
f 86/4/81 85/1/80 101/3/96
f 84/4/83 83/1/82 99/3/98
f 82/4/87 81/1/84 97/3/100
f 80/4/85 79/1/75 95/3/101
f 106/3/102 91/4/86 105/2/92
f 89/4/76 88/1/79 104/3/91
f 102/3/93 87/4/78 101/2/96
f 85/4/80 84/1/83 100/3/95
f 83/4/82 82/1/87 98/3/97
f 81/4/84 80/1/85 96/3/99
f 107/3/116 92/4/88 106/2/102
f 109/3/113 94/4/90 108/2/103
f 105/4/92 104/1/91 120/3/105
f 103/4/94 102/1/93 118/3/107
f 116/3/115 101/4/96 115/2/108
f 99/4/98 98/1/97 114/3/110
f 97/4/100 96/1/99 112/3/112
f 95/4/101 94/1/90 110/3/114
f 121/3/117 106/4/102 120/2/105
f 104/4/91 103/1/94 119/3/104
f 102/4/93 101/1/96 117/3/106
f 100/4/95 99/1/98 115/3/108
f 98/4/97 97/1/100 113/3/109
f 111/3/111 96/4/99 110/2/114
f 122/3/152 107/4/116 121/2/117
f 126/3/128 109/4/113 125/2/118
f 120/4/105 119/1/104 137/3/120
f 118/4/107 117/1/106 135/3/122
f 133/3/131 116/4/115 132/2/123
f 114/4/110 113/1/109 131/3/125
f 112/4/112 111/1/111 129/3/127
f 110/4/114 109/1/113 127/3/129
f 121/4/117 120/1/105 138/3/130
f 119/4/104 118/1/107 136/3/119
f 117/4/106 116/1/115 134/3/121
f 115/4/108 114/1/110 132/3/123
f 113/4/109 112/1/112 130/3/124
f 111/4/111 110/1/114 128/3/126
f 122/4/152 121/1/117 139/3/132
f 141/3/140 126/4/128 140/2/133
f 150/3/148 135/4/122 149/2/134
f 148/3/142 133/4/131 147/2/135
f 131/4/125 130/1/124 146/3/137
f 129/4/127 128/1/126 144/3/139
f 127/4/129 126/1/128 142/3/141
f 134/4/121 133/1/131 149/3/134
f 132/4/123 131/1/125 147/3/135
f 130/4/124 129/1/127 145/3/136
f 128/4/126 127/1/129 143/3/138
f 146/4/137 145/1/136 9/3/25
f 144/4/139 143/1/138 7/3/26
f 142/4/141 141/1/140 5/3/19
f 2/4/149 151/1/146 16/3/28
f 1/4/150 150/1/148 14/3/4
f 149/4/134 148/1/142 12/3/7
f 147/4/135 146/1/137 10/3/10
f 8/3/13 145/4/136 7/2/26
f 6/3/16 143/4/138 5/2/19
f 152/4/144 2/1/149 17/3/145
f 141/4/140 140/1/133 4/3/20
f 151/4/146 1/1/150 15/3/21
f 150/4/148 149/1/134 13/3/23
f 148/4/142 147/1/135 11/3/24
f 137/4/120 136/1/119 151/3/146
f 138/4/130 137/1/120 2/3/149
f 1/3/150 136/4/119 150/2/148
f 139/4/132 138/1/130 152/3/144
